<?xml version="1.0" encoding="utf-8"?>
<!-- Generator: Adobe Illustrator 23.0.0, SVG Export Plug-In . SVG Version: 6.00 Build 0)  -->
<svg version="1.1" id="Layer_1" xmlns="http://www.w3.org/2000/svg" xmlns:xlink="http://www.w3.org/1999/xlink" x="0px" y="0px"
	 viewBox="0 0 369 222" style="enable-background:new 0 0 369 222;" xml:space="preserve">
<style type="text/css">
	.st0{fill-rule:evenodd;clip-rule:evenodd;fill:#E42325;}
</style>
<g>
	<g>
		<path class="st0" d="M180.47,10.16c-1.02,2.06-2.49,2.85-4.23,4.35c-5.26,4.52-11.25,9.18-17.39,14
			c-7.59,5.96-20.82,14.53-19.27,27.03c1.42,11.46,16.79,20.4,25.85,27.51c10.63,8.34,26.39,18.92,27.73,32.82
			c0.29,3,0.06,6.23-0.94,9.17c-5.73,16.74-25.74,24.33-37.6,36.2c-3.46-0.17-5.57,0.1-8.93,0c6.42-7.75,14.46-11.91,23.03-18.82
			c6.53-5.26,18.16-13.69,18.33-24.13c0.12-6.85-6.27-13.61-10.34-17.38c-5.1-4.73-10.42-8.98-15.04-12.55
			c-11.35-8.78-33.68-21.83-27.27-41.51c5.29-16.22,26.91-26.52,37.61-36.68C174.83,10.16,177.65,10.16,180.47,10.16z"/>
		<path class="st0" d="M209.61,34.27c0,10.14,0,20.27,0,30.41c3.91,0,7.61,0,11.53,0c-0.05,2.66,0,5.98-0.05,7.75
			c-3.6,0-7.89-0.05-11.5-0.05c0,13.54-0.55,27.8-0.02,38.7c0.47,9.69,13.29,8.43,26.36,1.39c3.29,4.35,2.3,3.13,3.29,4.35
			c-4.67,6.01-16.67,9.29-25.38,8.21c-17.43-2.16-10.01-17.44-11.97-52.61c-1.85,0.1-13.48-0.17-20.93,0c0-2.58,0-5.15,0-7.72
			c6.89,0,13.73-0.11,20.63-0.11c-0.01-8.82-0.12-20-0.1-30.3C203.97,34.27,207.1,34.27,209.61,34.27z"/>
		<path class="st0" d="M72.36,95.11c-17.55,0-35.1,0-52.65,0c-1.29,20.9,27.34,29.69,39.48,15.45c2.67,0,5.33,0,7.99,0
			c0.36,2.8-3.98,6.88-7.05,9.17c-17.74,13.22-44.9,1.14-47.48-20.27c-2.17-18.04,9.76-33.13,26.79-34.75
			C59.55,62.79,70.85,76.44,72.36,95.11z M21.13,88.36c14.26,0,28.52,0,42.77,0C60.69,67.43,24.38,67.61,21.13,88.36z"/>
		<path class="st0" d="M136.75,95.11c-17.39,0-34.78,0-52.17,0c-2.5,20.4,27.16,29.91,39.48,15.45c2.51,0,5.01,0,7.52,0
			c0.29,2.88-3.93,6.85-7.05,9.17c-16.8,12.52-44.95,2.41-47.47-20.76c-1.92-17.6,9.97-32.67,26.79-34.27
			C122.98,62.88,136.17,76.73,136.75,95.11z M85.52,88.36c14.26-0.32,30.12,0.42,43.36-0.02C124.69,67.82,89.11,67.36,85.52,88.36z"
			/>
		<path class="st0" d="M298.92,95.11c-17.55,0-35.1,0-52.64,0c-1.79,21.58,27.45,29.3,39.48,15.45c2.82,0,5.64,0,8.46,0
			c-8.63,17.94-36.25,18.81-48.42,4.35c-15.5-18.42-3.54-48.28,20.21-50.2C286.25,63.07,296.85,76.7,298.92,95.11z M247.22,88.36
			c14.26-0.32,29.82,0.34,43.3-0.18C286.35,67.5,250.82,67.57,247.22,88.36z"/>
		<path class="st0" d="M359.92,82.16c-7.14,0-7.14,0.03-8.16,0.03l-1.57-1.91c-1.05-1.32-2.16-2.57-2.68-3.11
			c-0.12-0.12-0.14-0.17-0.36-0.39c-8.07-8.06-20.89-6.04-28.14,0.11c-6.06,5.14-9.17,13.87-8.34,21.12
			c1.99,17.45,26.48,27.21,39.48,12.55c2.82,0,5.64,0,8.46,0c-14.92,26.7-56.73,13.82-55.47-16.89
			c0.64-15.51,13.35-30.7,32.91-28.96C346.74,65.65,356.23,74.69,359.92,82.16z"/>
		<path class="st0" d="M290.21,158.93c-1.68,1.9-5.84,6.62-7.87,8.89c-1.17,1.31-0.8,1.25-1.6,1.25c-0.83-0.01-2.34-0.1-4.38-0.11
			c1.77-2.86,3.74-6.22,5-8.03c0.29-0.42,1.18-2.06,1.39-2.06C283.91,158.87,285.48,158.88,290.21,158.93z"/>
		<path class="st0" d="M110.9,169.93c-1.3,2.38-2.46,3.19-3.76,4.82c-2.07-1.63-3.79-3.13-6.11-3.86
			c-20.62-6.46-21.12,26.49-1.88,23.65c3.35-0.49,5.44-2.5,7.3-6.19c-2.33,0-6.66,0.23-9.64-0.08c0-1.93,0-3.86,0-5.79
			c5.64,0,11.28,0,16.92,0c0.75,23.85-32.63,23.1-35.25,2.9C76.01,166.43,97.99,157.75,110.9,169.93z"/>
		<path class="st0" d="M241.11,164.14c2.04,0,4.07,0,6.11,0c0,6.6,0,13.19,0,19.79c1.98-1.54,3.62-3.63,4.59-4.63
			c0.67-0.69,4.71-5.1,4.73-5.1c1.58,0,2.61,0,7.13,0.08c-3.12,4.36-6.92,7.92-10.2,12c4.04,4.99,7.66,8.61,11.61,13.59
			c-1.21,0-4.3-0.05-6.48,0c-0.86,0.02-4.87-5.54-11.38-11.58c0,3.86,0,7.72,0,11.58c-2.04,0-4.07,0-6.11,0
			C241.11,187.95,241.11,176.04,241.11,164.14z"/>
		<path class="st0" d="M61.55,165.11c4.13,11.69,8.91,22.71,12.69,34.75c-2.04,0-4.08,0-6.11,0c-1.13-2.21-1.76-4.94-2.82-7.24
			c-4.54,0-9.09,0-13.63,0c-1.26,2.15-1.98,5.04-3.29,7.24c-2.19,0-4.39,0-6.58,0c4.54-11.43,8.78-23.16,13.16-34.75
			C57.16,165.11,59.35,165.11,61.55,165.11z M53.56,186.34c2.88-0.07,7.06,0.4,9.67-0.05c-1.78-3.64-3.19-8.38-4.97-12.02
			C56.5,178.1,55.23,182.43,53.56,186.34z"/>
		<path class="st0" d="M126.86,165.11c0,4.18-0.05,8.93-0.05,13.12c2.73,0.07,7.08-0.11,10.89-0.08c0-4.34,0-8.69,0-13.03
			c2.19,0,4.39,0,6.58,0c0,11.58,0,23.17,0,34.75c-2.19,0-4.39,0-6.58,0c0-5.15,0-10.3,0-15.45c-3.76,0-7.18-0.04-10.95-0.04
			c0.01,3.11-0.07,9.44-0.21,15.48c-2.03,0-4.67,0-6.71,0c0-11.58,0-23.17,0-34.75C121.87,165.11,124.82,165.11,126.86,165.11z"/>
		<path class="st0" d="M165.43,165.11c2.19,0,4.39,0,6.58,0c0,3.7,0,7.4,0,11.1c2.38-2.29,6.16-7.51,8.93-11.1c2.51,0,5.01,0,7.52,0
			c-3.42,5.5-7.87,9.94-11.28,15.45c4.04,6.48,7.84,13.23,12.27,19.3c-1.93,0-4.46-0.14-7.1,0c-3.36-5.08-6.5-10.38-10.34-14.96
			c0,4.99,0,9.98,0,14.96c-2.19,0-4.39,0-6.58,0C165.43,188.28,165.43,176.69,165.43,165.11z"/>
		<path class="st0" d="M205.85,173.79c-0.31,2.22-0.85,3.27-1.41,5.79c-7.24-1.31-5.17,5.34-5.64,20.27c-2.04,0-4.07,0-6.11,0
			c0-8.53,0-17.05,0-25.58c1.72,0,3.45,0,5.17,0c0,0.96,0,1.93,0,2.89C199.43,174.87,202.21,172.52,205.85,173.79z"/>
		<path class="st0" d="M227.94,176.69c0-0.8,0-1.61,0-2.41c2.04,0,4.08,0,6.11,0c0,8.53,0,17.06,0,25.58c-2.04,0-4.07,0-6.11,0
			c0-0.8,0-1.61,0-2.41c-8.51,6.69-19.75,0.65-19.74-10.13C208.21,176.24,218.8,168.84,227.94,176.69z M217.44,179.64
			c-7.16,3.69-4.05,17.88,6.17,15.05C234.06,189.45,225.49,175.49,217.44,179.64z"/>
		<path class="st0" d="M278.71,173.79c21.24-2.58,17.57,33.01-3.29,26.06C264.94,196.37,263.99,175.58,278.71,173.79z
			 M282.27,194.94c3.23-0.71,5.33-4.35,5.52-7.91c0.23-4.32-3.63-9.79-9.71-7.73c-3.7,1.26-5.11,4.32-4.8,9.19
			C273.42,190.69,276.36,196.24,282.27,194.94z"/>
		<path class="st0" d="M295.99,174.28c1.58-0.04,4.3,0,6.22,0c1.47,4.92,3.23,9.36,4.7,14.48c2.1-4.37,3.94-9.47,5.64-14.48
			c1.41,0,2.82,0,4.23,0c1.81,4.96,3.07,9.72,5.17,14c2.04-4.35,3.25-9.54,5.17-14c1.88,0,3.76,0,5.64,0
			c-2.54,8.98-5.84,17.17-8.93,25.58c-1.25,0-2.51,0-3.76,0c-1.75-4.8-3.54-9.56-5.17-14.48c-1.66,4.59-2.56,6.1-5.64,14.48
			c-1.41,0-2.82,0-4.23,0C302.23,191.31,299.34,182.26,295.99,174.28z"/>
	</g>
</g>
</svg>
