<?xml version="1.0" encoding="utf-8"?>
<!-- Generator: Adobe Illustrator 23.0.0, SVG Export Plug-In . SVG Version: 6.00 Build 0)  -->
<svg version="1.1" id="Warstwa_1" xmlns="http://www.w3.org/2000/svg" xmlns:xlink="http://www.w3.org/1999/xlink" x="0px" y="0px"
	 viewBox="0 0 217.47 146.13" style="enable-background:new 0 0 217.47 146.13;" xml:space="preserve">
<g>
	<path d="M105.54,58.05h-8.47c-6.35,0-11.51-5.2-11.51-11.59c0-6.39,5.16-11.59,11.51-11.59h51.35V4.83H97.07
		c-22.64,0-41.05,18.68-41.05,41.63c0,22.95,18.42,41.63,41.05,41.63h8.34L105.54,58.05z"/>
	<path fill="#C0CE47" d="M210.28,98.99c0,11.13-9.02,20.15-20.15,20.15c-11.13,0-20.15-9.02-20.15-20.15s9.02-20.15,20.15-20.15
		C201.26,78.84,210.28,87.86,210.28,98.99z"/>
	<circle cx="27.34" cy="46.86" r="20.15"/>
	<path fill="#C0CE47" d="M114,88.13h6.71c6.33,0,11.49,5.19,11.49,11.56c0,6.38-5.15,11.56-11.49,11.56H69.36v30.04h51.97
		c16.46-0.22,31.16-10.39,37.39-25.91c6.24-15.55,2.7-33.27-9.02-45.13c-9.52-8.94-15.58-12.64-35.35-12.32l-8.95,0.15v30.04
		L114,88.13z"/>
</g>
</svg>
