<?xml version="1.0" encoding="utf-8"?>
<!-- Generator: Adobe Illustrator 23.0.0, SVG Export Plug-In . SVG Version: 6.00 Build 0)  -->
<svg version="1.1" id="Warstwa_1" xmlns="http://www.w3.org/2000/svg" xmlns:xlink="http://www.w3.org/1999/xlink" x="0px" y="0px"
	 viewBox="0 0 378.45 132.77" style="enable-background:new 0 0 378.45 132.77;" xml:space="preserve">
<style type="text/css">
	.st0{fill:#C0CE47;}
	.st1{display:none;}
	.st2{display:inline;}
	.st3{display:inline;fill:#FFFFFF;}
	.st4{display:inline;fill:#C0CE47;}
	.st5{fill:#FFFFFF;}
</style>
<g>
	<path d="M95.57,53.96h-7.01c-5.25,0-9.53-4.3-9.53-9.59c0-5.29,4.27-9.59,9.53-9.59h42.5V9.92h-42.5
		c-18.73,0-33.97,15.45-33.97,34.45c0,19,15.24,34.45,33.97,34.45h6.9L95.57,53.96z"/>
	<path class="st0" d="M182.25,87.84c0,9.21-7.46,16.67-16.67,16.67c-9.21,0-16.67-7.46-16.67-16.67c0-9.21,7.46-16.67,16.67-16.67
		C174.78,71.17,182.25,78.63,182.25,87.84z"/>
	<path d="M47.52,44.7c0,9.21-7.46,16.67-16.67,16.67c-9.21,0-16.67-7.46-16.67-16.67c0-9.21,7.46-16.67,16.67-16.67
		C40.06,28.03,47.52,35.5,47.52,44.7z"/>
	<path class="st0" d="M102.57,78.85h5.55c5.24,0,9.51,4.29,9.51,9.57c0,5.28-4.27,9.57-9.51,9.57H65.63v24.86h43.01
		c13.62-0.18,25.79-8.6,30.94-21.45c5.16-12.87,2.23-27.53-7.46-37.34c-7.88-7.4-12.89-10.46-29.25-10.2l-7.4,0.13v24.86
		L102.57,78.85z"/>
	<path d="M200.63,52.66l1.95-1.17c1.38,2.53,2.96,3.8,4.77,3.8c0.77,0,1.49-0.18,2.17-0.54c0.68-0.36,1.19-0.84,1.55-1.45
		c0.35-0.6,0.53-1.24,0.53-1.92c0-0.77-0.26-1.53-0.78-2.27c-0.72-1.02-2.03-2.25-3.94-3.69c-1.92-1.45-3.11-2.49-3.58-3.14
		c-0.81-1.08-1.22-2.25-1.22-3.52c0-1,0.24-1.91,0.72-2.73c0.48-0.82,1.15-1.47,2.02-1.95c0.87-0.47,1.81-0.71,2.84-0.71
		c1.08,0,2.1,0.27,3.04,0.8c0.94,0.54,1.94,1.52,2.99,2.96l-1.88,1.42c-0.87-1.15-1.6-1.9-2.21-2.27c-0.61-0.36-1.27-0.55-1.99-0.55
		c-0.93,0-1.69,0.28-2.27,0.84s-0.88,1.26-0.88,2.08c0,0.5,0.1,0.98,0.31,1.45c0.21,0.47,0.59,0.98,1.14,1.53
		c0.3,0.29,1.29,1.06,2.97,2.3c1.99,1.47,3.35,2.78,4.09,3.92c0.74,1.15,1.11,2.3,1.11,3.45c0,1.67-0.63,3.11-1.9,4.34
		c-1.27,1.23-2.8,1.84-4.62,1.84c-1.4,0-2.66-0.37-3.8-1.12C202.64,55.66,201.59,54.41,200.63,52.66z"/>
	<path d="M229.57,33.38c3.48,0,6.39,1.16,8.74,3.48c2.35,2.32,3.52,5.18,3.52,8.58c0,3.36-1.17,6.22-3.51,8.56
		c-2.34,2.34-5.19,3.52-8.56,3.52c-3.41,0-6.29-1.17-8.63-3.5c-2.34-2.33-3.52-5.16-3.52-8.47c0-2.21,0.54-4.25,1.6-6.14
		c1.07-1.89,2.52-3.36,4.37-4.43C225.43,33.92,227.42,33.38,229.57,33.38z M229.67,35.62c-1.7,0-3.31,0.44-4.84,1.33
		c-1.52,0.89-2.71,2.08-3.57,3.58c-0.86,1.5-1.28,3.17-1.28,5.02c0,2.73,0.95,5.04,2.84,6.92c1.89,1.88,4.18,2.82,6.85,2.82
		c1.79,0,3.44-0.43,4.95-1.3c1.52-0.87,2.7-2.05,3.55-3.55c0.85-1.5,1.28-3.17,1.28-5c0-1.82-0.43-3.47-1.28-4.95
		c-0.85-1.48-2.05-2.66-3.59-3.54C233.04,36.06,231.4,35.62,229.67,35.62z"/>
	<path d="M246.12,33.96h11.52v2.25h-9.22v7.2h9.22v2.25h-9.22v11.28h-2.3V33.96z"/>
	<path d="M259.03,36.21v-2.25h12.59v2.25h-5.13v20.73h-2.34V36.21H259.03z"/>
	<path d="M280.78,52.66l1.95-1.17c1.38,2.53,2.96,3.8,4.77,3.8c0.77,0,1.49-0.18,2.17-0.54c0.68-0.36,1.19-0.84,1.55-1.45
		c0.35-0.6,0.53-1.24,0.53-1.92c0-0.77-0.26-1.53-0.78-2.27c-0.72-1.02-2.03-2.25-3.94-3.69c-1.92-1.45-3.11-2.49-3.58-3.14
		c-0.81-1.08-1.22-2.25-1.22-3.52c0-1,0.24-1.91,0.72-2.73c0.48-0.82,1.15-1.47,2.02-1.95c0.87-0.47,1.81-0.71,2.84-0.71
		c1.08,0,2.1,0.27,3.04,0.8c0.94,0.54,1.94,1.52,2.99,2.96l-1.88,1.42c-0.87-1.15-1.6-1.9-2.21-2.27c-0.61-0.36-1.27-0.55-1.99-0.55
		c-0.93,0-1.69,0.28-2.27,0.84c-0.59,0.56-0.88,1.26-0.88,2.08c0,0.5,0.1,0.98,0.31,1.45c0.21,0.47,0.59,0.98,1.14,1.53
		c0.3,0.29,1.29,1.06,2.97,2.3c1.99,1.47,3.35,2.78,4.09,3.92c0.74,1.15,1.11,2.3,1.11,3.45c0,1.67-0.63,3.11-1.9,4.34
		c-1.27,1.23-2.8,1.84-4.62,1.84c-1.4,0-2.66-0.37-3.8-1.12C282.79,55.66,281.74,54.41,280.78,52.66z"/>
	<path d="M298.77,33.96h2.34v8.63l9.19-8.63h3.09l-11.04,10.31l11.9,12.67h-3.06l-10.07-10.71v10.71h-2.34V33.96z"/>
	<path d="M317.03,33.96h2.3v22.98h-2.3V33.96z"/>
	<path d="M324.28,33.96h2.3v20.77h8.84v2.22h-11.14V33.96z"/>
	<path d="M338.74,33.96h2.3v20.77h8.84v2.22h-11.14V33.96z"/>
	<path d="M350.82,52.66l1.95-1.17c1.38,2.53,2.96,3.8,4.77,3.8c0.77,0,1.49-0.18,2.17-0.54c0.68-0.36,1.19-0.84,1.55-1.45
		c0.35-0.6,0.53-1.24,0.53-1.92c0-0.77-0.26-1.53-0.78-2.27c-0.72-1.02-2.03-2.25-3.94-3.69c-1.92-1.45-3.11-2.49-3.58-3.14
		c-0.81-1.08-1.22-2.25-1.22-3.52c0-1,0.24-1.91,0.72-2.73c0.48-0.82,1.15-1.47,2.02-1.95c0.87-0.47,1.81-0.71,2.84-0.71
		c1.08,0,2.1,0.27,3.04,0.8c0.94,0.54,1.94,1.52,2.99,2.96l-1.88,1.42c-0.87-1.15-1.6-1.9-2.21-2.27c-0.61-0.36-1.27-0.55-1.99-0.55
		c-0.93,0-1.69,0.28-2.27,0.84c-0.59,0.56-0.88,1.26-0.88,2.08c0,0.5,0.1,0.98,0.31,1.45c0.21,0.47,0.59,0.98,1.14,1.53
		c0.3,0.29,1.29,1.06,2.97,2.3c1.99,1.47,3.35,2.78,4.09,3.92c0.74,1.15,1.11,2.3,1.11,3.45c0,1.67-0.63,3.11-1.9,4.34
		c-1.27,1.23-2.8,1.84-4.62,1.84c-1.4,0-2.66-0.37-3.8-1.12C352.83,55.66,351.78,54.41,350.82,52.66z"/>
	<path d="M212.4,72.36l10.72,22.98h-2.48l-3.62-7.56h-9.9l-3.58,7.56h-2.56l10.86-22.98H212.4z M212.11,77.25l-3.94,8.32h7.86
		L212.11,77.25z"/>
	<path d="M248.4,76.63l-1.81,1.39c-1-1.3-2.2-2.29-3.6-2.96c-1.4-0.67-2.94-1.01-4.62-1.01c-1.83,0-3.53,0.44-5.09,1.32
		c-1.56,0.88-2.77,2.06-3.63,3.55c-0.86,1.48-1.29,3.15-1.29,5.01c0,2.8,0.96,5.14,2.88,7.02c1.92,1.88,4.35,2.81,7.27,2.81
		c3.22,0,5.91-1.26,8.08-3.78l1.81,1.38c-1.15,1.46-2.58,2.59-4.29,3.38c-1.71,0.8-3.63,1.2-5.74,1.2c-4.02,0-7.19-1.34-9.52-4.02
		c-1.95-2.26-2.92-4.99-2.92-8.19c0-3.36,1.18-6.2,3.54-8.49c2.36-2.3,5.31-3.45,8.87-3.45c2.15,0,4.08,0.42,5.81,1.27
		C245.88,73.91,247.3,75.1,248.4,76.63z"/>
	<path d="M262.72,72.36l10.72,22.98h-2.48l-3.62-7.56h-9.9l-3.58,7.56h-2.56l10.86-22.98H262.72z M262.43,77.25l-3.94,8.32h7.86
		L262.43,77.25z"/>
	<path d="M277.33,95.35V72.36h4.77c3.44,0,5.93,0.28,7.48,0.83c2.23,0.78,3.97,2.14,5.23,4.06c1.25,1.93,1.88,4.22,1.88,6.89
		c0,2.3-0.5,4.33-1.49,6.08c-1,1.75-2.29,3.04-3.88,3.88c-1.59,0.83-3.82,1.25-6.68,1.25H277.33z M279.53,93.17h2.66
		c3.18,0,5.38-0.2,6.61-0.59c1.73-0.56,3.09-1.57,4.08-3.04c0.99-1.46,1.48-3.25,1.48-5.36c0-2.22-0.54-4.11-1.61-5.68
		c-1.07-1.57-2.57-2.65-4.48-3.23c-1.44-0.44-3.81-0.66-7.11-0.66h-1.63V93.17z"/>
	<path d="M301.47,72.36h13.17v2.25h-10.88v7.2h10.78v2.25h-10.78v9.03h10.78v2.25h-13.08V72.36z"/>
	<path d="M317.89,95.35l3.29-22.98h0.37l9.34,18.86l9.25-18.86h0.37l3.31,22.98h-2.25l-2.27-16.44l-8.13,16.44h-0.59l-8.22-16.56
		l-2.26,16.56H317.89z"/>
	<path d="M346.85,72.36h2.64l5.88,9.48l5.79-9.48h2.66l-7.28,12v10.98h-2.27V84.36L346.85,72.36z"/>
</g>
</svg>
